<?xml version="1.0" standalone="no"?>
<svg xmlns:xlink="http://www.w3.org/1999/xlink" id="wave" style="transform:rotate(0deg); transition: 0.3s" viewBox="0 0 1440 470" version="1.1" xmlns="http://www.w3.org/2000/svg"><defs><linearGradient id="sw-gradient-0" x1="0" x2="0" y1="1" y2="0"><stop stop-color="rgba(253.043, 230.2, 25.09, 0.79)" offset="0%"/><stop stop-color="rgba(255, 179, 11, 1)" offset="100%"/></linearGradient></defs><path style="transform:translate(0, 0px); opacity:1" fill="url(#sw-gradient-0)" d="M0,94L14.1,148.8C28.2,204,56,313,85,336.8C112.9,360,141,298,169,250.7C197.6,204,226,172,254,148.8C282.4,125,311,110,339,117.5C367.1,125,395,157,424,156.7C451.8,157,480,125,508,164.5C536.5,204,565,313,593,368.2C621.2,423,649,423,678,399.5C705.9,376,734,329,762,305.5C790.6,282,819,282,847,289.8C875.3,298,904,313,932,305.5C960,298,988,266,1016,258.5C1044.7,251,1073,266,1101,289.8C1129.4,313,1158,345,1186,329C1214.1,313,1242,251,1271,211.5C1298.8,172,1327,157,1355,188C1383.5,219,1412,298,1440,297.7C1468.2,298,1496,219,1525,195.8C1552.9,172,1581,204,1609,211.5C1637.6,219,1666,204,1694,172.3C1722.4,141,1751,94,1779,125.3C1807.1,157,1835,266,1864,274.2C1891.8,282,1920,188,1948,156.7C1976.5,125,2005,157,2019,172.3L2032.9,188L2032.9,470L2018.8,470C2004.7,470,1976,470,1948,470C1920,470,1892,470,1864,470C1835.3,470,1807,470,1779,470C1750.6,470,1722,470,1694,470C1665.9,470,1638,470,1609,470C1581.2,470,1553,470,1525,470C1496.5,470,1468,470,1440,470C1411.8,470,1384,470,1355,470C1327.1,470,1299,470,1271,470C1242.4,470,1214,470,1186,470C1157.6,470,1129,470,1101,470C1072.9,470,1045,470,1016,470C988.2,470,960,470,932,470C903.5,470,875,470,847,470C818.8,470,791,470,762,470C734.1,470,706,470,678,470C649.4,470,621,470,593,470C564.7,470,536,470,508,470C480,470,452,470,424,470C395.3,470,367,470,339,470C310.6,470,282,470,254,470C225.9,470,198,470,169,470C141.2,470,113,470,85,470C56.5,470,28,470,14,470L0,470Z"/></svg>